<svg xmlns="http://www.w3.org/2000/svg" viewBox="0 0 1200 800" role="img" aria-labelledby="title desc">
  <title id="title">Omni camp preview</title>
  <desc id="desc">Stylized camp card with firelight, tents, and station markers.</desc>
  <defs>
    <linearGradient id="bg" x1="0" y1="0" x2="0" y2="1">
      <stop offset="0%" stop-color="#181411"/>
      <stop offset="100%" stop-color="#100f0e"/>
    </linearGradient>
    <radialGradient id="fire" cx="0.5" cy="0.65" r="0.22">
      <stop offset="0%" stop-color="#f0c992" stop-opacity="0.9"/>
      <stop offset="100%" stop-color="#f0c992" stop-opacity="0"/>
    </radialGradient>
  </defs>
  <rect width="1200" height="800" rx="36" fill="url(#bg)"/>
  <rect width="1200" height="800" rx="36" fill="url(#fire)"/>
  <path d="M0 594c151-32 274-48 428-48 218 0 362 37 772 113v141H0z" fill="#171412"/>
  <path d="M373 562l108-178 113 178z" fill="#231d19" stroke="#433b35" stroke-width="4"/>
  <path d="M609 585l92-150 88 150z" fill="#231d19" stroke="#433b35" stroke-width="4"/>
  <circle cx="706" cy="474" r="86" fill="rgba(200,174,147,0.15)"/>
  <path d="M694 530c0-30 19-43 19-68 0-20-13-32-13-49 0-20 14-34 29-46-4 17 10 29 19 42 11 17 18 34 18 57 0 41-27 64-72 64z" fill="#f2cf9a"/>
  <path d="M720 529c0-20 14-28 14-45 0-13-9-22-9-32 0-13 9-22 20-31-2 11 7 20 13 29 7 11 11 22 11 38 0 27-18 41-49 41z" fill="#fff2d6"/>
  <path d="M670 571h90" stroke="#a56d47" stroke-linecap="round" stroke-width="10"/>
  <rect x="116" y="120" width="262" height="132" rx="24" fill="#1d1a17" stroke="#433b35" stroke-width="3"/>
  <text x="152" y="176" fill="#fff8f2" font-family="Georgia, serif" font-size="50">The Camp</text>
  <text x="152" y="220" fill="#b9b1aa" font-family="Arial, sans-serif" font-size="24" letter-spacing="4">REST / REPAIR / ROUTE</text>
  <rect x="864" y="152" width="216" height="92" rx="20" fill="#1d1a17" stroke="#433b35" stroke-width="3"/>
  <text x="899" y="204" fill="#fff8f2" font-family="Georgia, serif" font-size="34">Workshop</text>
  <rect x="872" y="320" width="208" height="92" rx="20" fill="#1d1a17" stroke="#433b35" stroke-width="3"/>
  <text x="907" y="372" fill="#fff8f2" font-family="Georgia, serif" font-size="34">Planning</text>
  <rect x="855" y="488" width="225" height="92" rx="20" fill="#1d1a17" stroke="#433b35" stroke-width="3"/>
  <text x="890" y="540" fill="#fff8f2" font-family="Georgia, serif" font-size="34">Commons</text>
</svg>
